<mxfile host="app.diagrams.net" modified="2023-12-04T17:43:57.744Z" agent="Mozilla/5.0 (Macintosh; Intel Mac OS X 10.15; rv:121.0) Gecko/20100101 Firefox/121.0" etag="5VRKr4EojlM4QfSekafa" version="22.1.5" type="google">
  <diagram name="Page-1" id="u3EJ2NXvjXlwJDDaN7GO">
    <mxGraphModel grid="0" page="1" gridSize="10" guides="1" tooltips="1" connect="1" arrows="1" fold="1" pageScale="1" pageWidth="1169" pageHeight="826" math="0" shadow="0">
      <root>
        <mxCell id="0" />
        <mxCell id="1" parent="0" />
        <mxCell id="Ce1AK5XO5JZfZPW9kbE0-1" value="Networking" style="rounded=0;whiteSpace=wrap;html=1;strokeColor=#BAC8D3;fontColor=#EEEEEE;fillColor=#09555B;" vertex="1" parent="1">
          <mxGeometry x="243" y="225" width="120" height="60" as="geometry" />
        </mxCell>
        <mxCell id="Ce1AK5XO5JZfZPW9kbE0-2" value="UI" style="rounded=0;whiteSpace=wrap;html=1;strokeColor=#BAC8D3;fontColor=#EEEEEE;fillColor=#09555B;" vertex="1" parent="1">
          <mxGeometry x="488" y="223" width="120" height="60" as="geometry" />
        </mxCell>
        <mxCell id="Ce1AK5XO5JZfZPW9kbE0-3" value="Data" style="rounded=0;whiteSpace=wrap;html=1;strokeColor=#BAC8D3;fontColor=#EEEEEE;fillColor=#09555B;" vertex="1" parent="1">
          <mxGeometry x="721" y="220" width="120" height="60" as="geometry" />
        </mxCell>
      </root>
    </mxGraphModel>
  </diagram>
</mxfile>
